<svg width="25" height="24" viewBox="0 0 25 24" fill="none" xmlns="http://www.w3.org/2000/svg">
<path d="M17.148 19.6779C16.3488 19.6779 15.5504 19.6763 14.7512 19.6739C14.2384 19.6724 13.7263 19.6708 13.2142 19.67L10.0309 19.6747C8.16351 19.6771 6.29849 19.6786 4.43426 19.6692C2.40957 19.659 0.826152 17.9808 0.830085 15.8487C0.831659 14.743 1.28002 13.6931 2.06032 12.9675C2.76668 12.3109 3.66655 11.9858 4.59709 12.0526C4.68125 12.0589 4.76385 12.0659 4.84565 12.0753C4.89128 11.7612 4.94634 11.4408 5.03208 11.1181C5.36166 9.87022 6.16556 8.803 7.23926 8.18967C8.16666 7.66038 9.22384 7.50489 10.3148 7.73341C10.9551 6.40547 11.8345 5.47017 12.9971 4.87884C14.5231 4.10296 16.2733 4.14066 17.7985 4.977C19.4952 5.90837 20.6232 7.66902 20.8143 9.68882C20.8214 9.75635 20.8277 9.82781 20.834 9.89535C20.8631 9.90006 20.893 9.90399 20.9221 9.9087C23.263 10.2731 24.9408 12.4806 24.8244 15.043C24.7087 17.6039 22.7635 19.6323 20.3958 19.6606C19.3135 19.6739 18.2304 19.6771 17.1472 19.6771L17.148 19.6779ZM11.2981 17.552H12.3584C13.1576 17.552 13.9576 17.5544 14.7567 17.5568C16.6281 17.5623 18.5009 17.567 20.3715 17.5442C21.5954 17.5293 22.6431 16.3647 22.7076 14.948C22.7745 13.4661 21.8668 12.1986 20.5964 12.0015C19.1161 11.7714 18.8384 11.2963 18.7047 9.88985C18.5788 8.56898 17.8583 7.42636 16.7775 6.83346C15.8635 6.33165 14.8629 6.30809 13.9599 6.76671C13.1757 7.16564 12.5795 7.84728 12.135 8.85011C11.7402 9.74143 11.2784 10.1922 10.0741 9.85451C9.41655 9.66997 8.81717 9.72887 8.2933 10.0289C7.7183 10.3571 7.26601 10.9665 7.08352 11.6591C6.98991 12.0125 6.93957 12.4044 6.88608 12.819L6.84518 13.1292C6.77674 13.635 6.52425 13.9169 6.32524 14.0645C6.12859 14.2098 5.79507 14.3676 5.30974 14.2868L5.19175 14.2671C4.94319 14.2263 4.69541 14.1831 4.44606 14.165C4.11491 14.1399 3.77667 14.2671 3.5053 14.5184C3.15369 14.8451 2.95153 15.3312 2.95075 15.8519C2.94917 16.8178 3.59103 17.5481 4.44449 17.5528C6.30557 17.5623 8.16587 17.5607 10.0285 17.5583L11.2981 17.5528V17.552Z" fill="#15745D"/>
</svg>
