<svg version="1.1" id="Calque_1" xmlns="http://www.w3.org/2000/svg" x="0" y="0" viewBox="0 0 110.4 74.9" xml:space="preserve"><style>.st0{fill:#fff}</style><path class="st0" d="M15.5 28.2h7.6s.1 12.8 0 16.1c-.1 4.8-2.7 7.5-5.3 8.7-6.9 3.2-10.9-.3-10.9-.3.2-.1 2.9-5.1 2.9-5.1s.4.5 2.6.5c2 0 2.8-1.2 2.8-4.1s.3-15.6.3-15.8zM55.7 53.2h-8l3.5-16.1-10.3 16.2h-2.7l-1.8-16.7-5 16.6h-7.8L32.9 28l8.4.1 1.3 14.1 8.6-14.1h8.5zM89.1 40.1c2.2-.8 5.3.3 3.7 4.9-2 5.7-6.1 4.2-6.1 4.2l3.6-13.7h-6.8l-6.3 26.3h6.1l2.1-8.4c.6.1 1.3.2 1.9.2 5.6.2 9.9-2.6 12.1-8 2.3-5.5-.9-10.7-5.6-10.5l-4.5 4.4-.2.6zM70.2 50.2L66 53.7c-5.5 1.1-8.1-4.5-6.4-9.7 1.8-5.6 7.4-9 12.9-8.8 3.5.1 7.6 1.5 7.6 1.5l-3.4 13.6c-.5 1.9-.4 3.3-.4 3.3h-6.8l2.9-13.7s-4-.6-6 4.4c-2 5.1 1.4 6.3 3.9 5.5l-.1.4zM103.3 36.5c.2 0 .5-.1.8-.1.5 0 .8.1 1 .2.2.1.3.3.3.6 0 .4-.3.6-.6.8.3.1.4.3.5.6.1.4.2.7.3.8h-.4c-.1-.1-.1-.3-.2-.7-.1-.4-.3-.6-.7-.6h-.4v1.3h-.4v-2.9zm.5 1.3h.4c.5 0 .8-.2.8-.6 0-.4-.3-.5-.8-.6h-.4v1.2z"/><path class="st0" d="M104.3 40.5c-1.4 0-2.6-1.2-2.6-2.6s1.2-2.6 2.6-2.6 2.6 1.2 2.6 2.6-1.2 2.6-2.6 2.6zm0-4.7c-1.1 0-2.1.9-2.1 2.1 0 1.1.9 2.1 2.1 2.1s2.1-.9 2.1-2.1c0-1.2-.9-2.1-2.1-2.1z"/><g><path class="st0" d="M29.2 63.5l1.7.6c-.3 1-.7 1.8-1.3 2.3-.6.5-1.4.8-2.3.8-1.2 0-2.1-.4-2.9-1.3-.8-.9-1.1-2.1-1.1-3.6 0-1.6.4-2.8 1.1-3.7.8-.9 1.7-1.3 3-1.3 1.1 0 1.9.3 2.6 1 .4.4.7 1 .9 1.8l-1.8.5c-.1-.5-.3-.9-.7-1.2-.3-.3-.7-.4-1.2-.4-.7 0-1.2.3-1.6.8-.4.5-.6 1.3-.6 2.5s.2 2.1.6 2.6.9.8 1.6.8c.5 0 .9-.2 1.2-.5s.6-1 .8-1.7zM32.2 67v-9.6h1.7V67h-1.7zM35 63.4c0-.6.1-1.2.4-1.8.3-.6.7-1 1.2-1.3s1.1-.5 1.7-.5c1 0 1.8.3 2.4 1s.9 1.5.9 2.6-.3 1.9-.9 2.6c-.6.7-1.4 1-2.3 1-.6 0-1.1-.1-1.7-.4-.5-.3-.9-.7-1.2-1.3-.4-.4-.5-1.1-.5-1.9zm1.7.1c0 .7.2 1.2.5 1.6.3.4.7.5 1.1.5.4 0 .8-.2 1.1-.5.3-.4.4-.9.4-1.6 0-.7-.1-1.2-.4-1.6s-.7-.5-1.1-.5c-.4 0-.8.2-1.1.5s-.5.9-.5 1.6zM46.8 67v-1c-.2.4-.5.7-.9.9-.4.2-.8.3-1.2.3-.4 0-.8-.1-1.2-.3s-.5-.6-.7-.9c-.2-.4-.2-.9-.2-1.5V60h1.7v3.2c0 1 0 1.6.1 1.8.1.2.2.4.3.5.2.1.4.2.6.2.3 0 .5-.1.8-.3.2-.2.4-.4.5-.6.1-.3.1-.9.1-1.9V60h1.7v7h-1.6zM55.7 67h-1.6v-1c-.3.4-.6.7-.9.9-.4.2-.7.3-1.1.3-.7 0-1.4-.3-1.9-1-.5-.6-.8-1.5-.8-2.7 0-1.2.3-2.1.8-2.7.5-.6 1.1-.9 1.9-.9.7 0 1.3.3 1.8 1v-3.5h1.7V67zm-4.5-3.6c0 .7.1 1.3.3 1.6.3.5.7.7 1.1.7.4 0 .7-.2 1-.5.3-.4.4-.9.4-1.6 0-.8-.1-1.4-.4-1.7-.3-.4-.6-.5-1-.5s-.7.2-1 .5-.4.8-.4 1.5z"/></g><g><path class="st0" d="M88.9 30.4h-20c-3.2 0-5.6-2.6-5.6-6 0-1.7.7-3.4 1.9-4.5 1.1-1 2.5-1.5 4-1.4h.4l.3-1.5c.5-2 1.8-3.6 3.5-4.6 1.5-.8 3.1-1.1 4.8-.7 1-2.1 2.4-3.5 4.2-4.5 2.4-1.2 5.1-1.2 7.5.2 2.7 1.5 4.4 4.2 4.7 7.4v.3h.1c3.7.6 6.3 4 6.1 8.1-.2 4-3.2 7.2-6.9 7.2h-5zm-9.1-3.3h14.3c1.9 0 3.6-1.8 3.7-4.1.1-2.3-1.3-4.3-3.3-4.6-2.3-.4-2.8-1.1-3-3.3-.2-2.1-1.3-3.9-3-4.8-1.4-.8-3-.8-4.4-.1-1.2.6-2.2 1.7-2.9 3.3-.6 1.4-1.3 2.1-3.2 1.6-1-.3-2-.2-2.8.3-.9.5-1.6 1.5-1.9 2.6l-.3 1.8-.1.5c-.1.8-.5 1.2-.8 1.5-.3.2-.8.5-1.6.3h-.2c-.4-.1-.8-.1-1.2-.2-.5 0-1 .2-1.5.6-.6.5-.9 1.3-.9 2.1 0 1.5 1 2.7 2.3 2.7h8.7l2.1-.2z"/></g></svg>